<svg width="16" height="16" viewBox="0 0 16 16" fill="none" xmlns="http://www.w3.org/2000/svg">
<path d="M6.95 8.23822L6.95 8.23824L7.16838 8.54479L7.14253 8.58758L7.14254 8.58759L9.4812 10.0003L9.4812 10.0003L9.48225 10.0009C9.5708 10.0515 9.67491 10.0636 9.77206 10.0343C9.86913 10.005 9.95068 9.937 9.99996 9.84582C10.0492 9.7547 10.0627 9.64716 10.0378 9.54598C10.0129 9.44476 9.95134 9.35707 9.86536 9.30224L9.86537 9.30223L9.86433 9.3016L7.71819 8.00516V4.35319C7.71819 4.24712 7.67836 4.14488 7.60666 4.06909C7.53487 3.99319 7.43689 3.95 7.3341 3.95C7.2313 3.95 7.13332 3.99319 7.06153 4.06909C6.98983 4.14488 6.95 4.24712 6.95 4.35319L6.95 8.23822Z" fill="white" stroke="white" stroke-width="0.1"/>
<path d="M8 14.05C9.60456 14.05 11.1434 13.4126 12.278 12.278C13.4126 11.1434 14.05 9.60456 14.05 8C14.05 6.39544 13.4126 4.8566 12.278 3.722C11.1434 2.58741 9.60456 1.95 8 1.95C6.39544 1.95 4.8566 2.58741 3.722 3.722C2.58741 4.8566 1.95 6.39544 1.95 8C1.95 9.60456 2.58741 11.1434 3.722 12.278C4.8566 13.4126 6.39544 14.05 8 14.05ZM13.2 8C13.2 9.37913 12.6521 10.7018 11.677 11.677C10.7018 12.6521 9.37913 13.2 8 13.2C6.62087 13.2 5.29823 12.6521 4.32304 11.677C3.34786 10.7018 2.8 9.37913 2.8 8C2.8 6.62087 3.34786 5.29823 4.32304 4.32304C5.29823 3.34786 6.62087 2.8 8 2.8C9.37913 2.8 10.7018 3.34786 11.677 4.32304C12.6521 5.29823 13.2 6.62087 13.2 8Z" fill="white" stroke="white" stroke-width="0.1"/>
</svg>
